<?xml version="1.0" encoding="utf-8"?>
<!-- Generator: Adobe Illustrator 19.2.1, SVG Export Plug-In . SVG Version: 6.00 Build 0)  -->
<svg version="1.1" id="layer" xmlns="http://www.w3.org/2000/svg" xmlns:xlink="http://www.w3.org/1999/xlink" x="0px" y="0px"
	 viewBox="0 0 652 652" style="enable-background:new 0 0 652 652;" xml:space="preserve">
<style type="text/css">
	.st0{fill:#E13288;}
	.st1{fill:#F3BDD5;}
</style>
<g>
	<path class="st0" d="M219.2,254.6h46.1v17.7h0.8c14.2-15.2,25.7-21.7,54.2-22.4c1.7,0,14.3-0.1,16.1-0.1
		c52.2,0,70.7,36.8,70.7,76.4v122.4h-48.5v-98.2c0-21.4-1.6-57-35.6-57c-0.7,0-12.3,0-12.9,0c-30.4,1-42.3,24-42.3,49.3v105.9h-48.5
		V254.6z"/>
	<path class="st0" d="M160.9,254.6v98.2c0,14.4-0.7,35.1-11.4,47.1c-5.7,5-13.1,6.9-22.4,7.7c-1.4,0.1-19.1,0-20.9-0.1
		c-8.7-0.8-15.6-2.8-20.9-7.5c-10.7-12.1-11.5-32.8-11.5-47.1v-98.2H25.2V377c0,39.6,22.3,76.4,74.4,76.4H135
		c52.1,0,74.4-36.8,74.4-76.4V254.6H160.9z"/>
	<path class="st1" d="M519.7,249.8c58.6,0,105.5,40.8,105.5,101.8c0,61-46.9,101.9-105.5,101.9c-58.6,0-105.5-40.8-105.5-101.9
		C414.2,290.6,461.1,249.8,519.7,249.8 M519.7,409.8c35.5,0,57-27.9,57-58.2c0-30.3-21.4-58.2-57-58.2c-35.6,0-57,27.9-57,58.2
		C462.7,381.9,484.1,409.8,519.7,409.8"/>
	<rect x="453" y="200.6" class="st0" width="124" height="31.8"/>
</g>
</svg>
